<?xml version="1.0" encoding="UTF-8"?><svg xmlns="http://www.w3.org/2000/svg" xmlns:xlink="http://www.w3.org/1999/xlink" contentScriptType="text/ecmascript" zoomAndPan="magnify" contentStyleType="text/css" viewBox="0 0 375 375" preserveAspectRatio="xMidYMid meet" version="1.0"><defs><clipPath id="clip-0"><path d="M 20 26 L 356.25 26 L 356.25 349 L 20 349 Z M 20 26 " clip-rule="nonzero"/></clipPath></defs><g clip-path="url(#clip-0)"><path fill="rgb(89.019775%, 50.979614%, 16.079712%)" d="M 162.542969 26.453125 C 161.28125 26.453125 160.039062 26.617188 158.820312 26.953125 C 157.601562 27.289062 156.445312 27.78125 155.359375 28.429688 C 154.273438 29.078125 153.296875 29.859375 152.421875 30.773438 C 151.546875 31.6875 150.808594 32.699219 150.207031 33.8125 L 21.820312 271.953125 C 21.207031 273.085938 20.761719 274.28125 20.480469 275.539062 C 20.199219 276.796875 20.09375 278.066406 20.164062 279.355469 C 20.234375 280.640625 20.476562 281.894531 20.894531 283.113281 C 21.308594 284.332031 21.882812 285.472656 22.613281 286.535156 L 61.125 342.566406 C 61.765625 343.503906 62.511719 344.347656 63.363281 345.105469 C 64.210938 345.859375 65.140625 346.5 66.144531 347.03125 C 67.148438 347.558594 68.203125 347.960938 69.308594 348.234375 C 70.410156 348.503906 71.53125 348.640625 72.664062 348.640625 L 316.589844 348.640625 C 317.929688 348.640625 319.242188 348.449219 320.527344 348.070312 C 321.8125 347.691406 323.019531 347.140625 324.148438 346.414062 C 325.273438 345.691406 326.277344 344.820312 327.15625 343.808594 C 328.03125 342.796875 328.75 341.679688 329.308594 340.460938 L 354.964844 284.429688 C 355.398438 283.488281 355.722656 282.515625 355.9375 281.503906 C 356.15625 280.492188 356.257812 279.472656 356.25 278.4375 C 356.238281 277.402344 356.117188 276.382812 355.882812 275.378906 C 355.648438 274.371094 355.304688 273.402344 354.855469 272.472656 L 239.320312 34.332031 C 238.746094 33.148438 238.019531 32.070312 237.140625 31.09375 C 236.261719 30.113281 235.261719 29.277344 234.148438 28.582031 C 233.03125 27.882812 231.84375 27.355469 230.578125 26.992188 C 229.316406 26.632812 228.027344 26.449219 226.710938 26.453125 Z M 170.886719 54.46875 L 206.746094 54.46875 L 119.847656 215.917969 C 119.5625 216.449219 119.3125 217 119.09375 217.5625 C 118.878906 218.125 118.699219 218.703125 118.558594 219.289062 C 118.417969 219.875 118.316406 220.46875 118.25 221.070312 C 118.1875 221.667969 118.160156 222.269531 118.175781 222.875 C 118.1875 223.480469 118.238281 224.078125 118.332031 224.675781 C 118.421875 225.273438 118.550781 225.859375 118.71875 226.441406 C 118.882812 227.019531 119.089844 227.589844 119.328125 228.140625 C 119.570312 228.695312 119.84375 229.230469 120.152344 229.75 C 120.460938 230.269531 120.804688 230.765625 121.179688 231.238281 C 121.550781 231.714844 121.953125 232.160156 122.386719 232.582031 C 122.816406 233.003906 123.273438 233.398438 123.757812 233.761719 C 124.238281 234.125 124.742188 234.453125 125.265625 234.753906 C 125.792969 235.050781 126.335938 235.3125 126.894531 235.539062 C 127.453125 235.769531 128.023438 235.960938 128.605469 236.113281 C 129.191406 236.265625 129.78125 236.382812 130.378906 236.460938 C 130.980469 236.539062 131.578125 236.574219 132.183594 236.574219 L 184.589844 236.574219 L 198.949219 264.59375 L 57.621094 264.59375 Z M 227.722656 74.660156 L 326.765625 278.765625 L 312.925781 308.996094 L 238.609375 159.996094 C 238.03125 158.835938 237.308594 157.777344 236.4375 156.816406 C 235.570312 155.859375 234.585938 155.035156 233.484375 154.351562 C 232.386719 153.664062 231.214844 153.140625 229.972656 152.78125 C 228.730469 152.417969 227.460938 152.234375 226.164062 152.226562 C 224.9375 152.21875 223.734375 152.371094 222.546875 152.679688 C 221.363281 152.988281 220.238281 153.445312 219.171875 154.050781 C 218.105469 154.65625 217.136719 155.386719 216.265625 156.246094 C 215.390625 157.105469 214.640625 158.0625 214.019531 159.121094 L 184.863281 208.558594 L 155.652344 208.558594 Z M 225.015625 195.535156 L 287.40625 320.625 L 80.023438 320.625 L 60.769531 292.609375 L 221.898438 292.609375 C 222.496094 292.609375 223.089844 292.570312 223.683594 292.492188 C 224.273438 292.414062 224.859375 292.300781 225.4375 292.148438 C 226.015625 292 226.582031 291.8125 227.132812 291.585938 C 227.6875 291.363281 228.226562 291.105469 228.746094 290.8125 C 229.265625 290.519531 229.765625 290.195312 230.246094 289.835938 C 230.726562 289.480469 231.179688 289.09375 231.609375 288.679688 C 232.039062 288.265625 232.441406 287.824219 232.816406 287.359375 C 233.1875 286.890625 233.53125 286.402344 233.839844 285.894531 C 234.152344 285.382812 234.429688 284.855469 234.671875 284.308594 C 234.917969 283.765625 235.125 283.207031 235.296875 282.632812 C 235.46875 282.0625 235.605469 281.480469 235.703125 280.890625 C 235.800781 280.300781 235.859375 279.707031 235.878906 279.113281 C 235.902344 278.515625 235.886719 277.917969 235.832031 277.324219 C 235.777344 276.726562 235.683594 276.140625 235.554688 275.554688 C 235.425781 274.972656 235.257812 274.398438 235.054688 273.839844 C 234.855469 273.277344 234.617188 272.730469 234.34375 272.199219 L 208.960938 222.757812 Z M 225.015625 195.535156 " fill-opacity="1" fill-rule="nonzero"/></g></svg>